<?xml version="1.0" encoding="UTF-8" standalone="no"?>
<!-- Created with Inkscape (http://www.inkscape.org/) -->

<svg
   width="111.51939mm"
   height="29.905001mm"
   viewBox="0 0 111.51939 29.905001"
   version="1.1"
   id="svg1"
   inkscape:version="1.3.2 (091e20e, 2023-11-25)"
   sodipodi:docname="speculum.svg"
   xmlns:inkscape="http://www.inkscape.org/namespaces/inkscape"
   xmlns:sodipodi="http://sodipodi.sourceforge.net/DTD/sodipodi-0.dtd"
   xmlns="http://www.w3.org/2000/svg"
   xmlns:svg="http://www.w3.org/2000/svg">
  <sodipodi:namedview
     id="namedview1"
     pagecolor="#ffffff"
     bordercolor="#000000"
     borderopacity="0.25"
     inkscape:showpageshadow="2"
     inkscape:pageopacity="0.0"
     inkscape:pagecheckerboard="0"
     inkscape:deskcolor="#d1d1d1"
     inkscape:document-units="mm"
     inkscape:zoom="2.2338539"
     inkscape:cx="105.87084"
     inkscape:cy="69.386812"
     inkscape:window-width="1392"
     inkscape:window-height="1027"
     inkscape:window-x="0"
     inkscape:window-y="325"
     inkscape:window-maximized="0"
     inkscape:current-layer="layer1" />
  <defs
     id="defs1" />
  <g
     inkscape:label="Layer 1"
     inkscape:groupmode="layer"
     id="layer1"
     transform="translate(-45.198511,-28.902972)">
    <text
       xml:space="preserve"
       style="font-size:21.1667px;fill:#000000;stroke-width:0.264583"
       x="73.744431"
       y="50.679733"
       id="text1"><tspan
         sodipodi:role="line"
         id="tspan1"
         x="73.744431"
         y="50.679733"
         style="font-style:normal;font-variant:normal;font-weight:normal;font-stretch:normal;font-size:21.1667px;font-family:'Protest Strike';-inkscape-font-specification:'Protest Strike';fill:#000000;stroke-width:0.264583">speculum</tspan></text>
    <g
       id="g9"
       transform="matrix(0.57564916,0,0,0.57564916,36.453666,-51.512244)">
      <path
         style="fill:#ffffff;fill-opacity:1;stroke-width:0.264583"
         d="m 55.984375,141.62116 -34.594483,42.31647 -0.694978,-0.61776 1.544397,-2.54825 1.776056,-8.49418 2.625473,-6.71813 0.694978,1.69884 3.320455,-7.41311 2.162154,-2.31659 5.559827,-6.25481 4.63319,-4.16987 6.023147,-4.24709 5.250947,-1.46717 z"
         id="path6" />
      <g
         id="g8">
        <path
           style="fill:#9e71fe;fill-opacity:1;stroke-width:0.264583"
           d="m 56.358723,143.99165 -6.108245,4.80515 -14.82267,17.91751 -9.121641,11.4835 -1.140206,2.93196 7.00412,-2.36186 3.013398,-2.03608 4.642265,-3.0134 2.931957,-1.95464 -2.117524,-1.1402 4.397936,-1.71031 1.140206,-1.71031 3.664944,-4.47937 0.325774,-1.3031 -2.036083,-0.24433 3.013401,-1.38453 1.873194,-2.60619 1.873195,-3.5835 1.547421,-7.00412 z"
           id="path7" />
        <path
           id="path8"
           style="fill:#000000;stroke-width:0.5"
           d="m 56.873531,139.6969 c -0.574298,-0.0349 -2.454674,0.37721 -4.079337,0.91519 -1.906229,0.6312 -4.843105,2.06893 -6.507614,3.18585 -0.632229,0.42424 -1.659141,1.24812 -2.282031,1.8309 -0.622889,0.58279 -1.13223,0.99449 -1.13223,0.91519 0,-0.0793 -0.07437,-0.14391 -0.165365,-0.14366 -0.26818,7.4e-4 -2.202543,1.83905 -3.027722,2.87734 -0.60275,0.75825 -0.786133,0.91634 -0.876433,0.75499 -0.09489,-0.16955 -0.219916,-0.11143 -0.736905,0.34365 -1.047129,0.92171 -2.901117,3.20306 -3.595647,4.42402 -0.206939,0.3638 -0.396446,0.6873 -0.420646,0.7183 -0.02418,0.0311 -0.120457,-0.0487 -0.214457,-0.17725 -0.15602,-0.21337 -0.2233,-0.1726 -0.771529,0.47233 -0.689599,0.81123 -1.601345,2.12607 -1.842265,2.65668 -0.13398,0.29506 -0.200337,0.33353 -0.355017,0.20516 -0.15289,-0.12689 -0.239454,-0.0943 -0.443384,0.16639 -1.065179,1.36154 -2.411253,3.83316 -2.856673,5.2462 -0.23542,0.74682 -0.367642,0.86149 -0.502812,0.43563 -0.04618,-0.14552 -0.137788,-0.26459 -0.203088,-0.26459 -0.19839,0 -1.305114,1.79583 -2.133203,3.46078 -0.924409,1.8586 -1.598566,3.8057 -1.909444,5.51594 -0.222618,1.2247 -0.226876,1.23341 -0.401526,0.81804 -0.221217,-0.52612 -0.692122,-1.1958 -0.841293,-1.1958 -0.06201,0 -0.156663,0.40184 -0.210323,0.89297 -0.129733,1.18731 0.123718,3.39553 0.548287,4.77542 0.186902,0.60745 0.319022,1.12533 0.293522,1.15083 -0.0255,0.0255 -0.401917,-0.46344 -0.836124,-1.08675 -1.568505,-2.25157 -1.575557,-2.26023 -1.623157,-1.93632 -0.114786,0.78109 0.498509,3.20392 1.30328,5.14904 0.165242,0.39939 0.143903,0.45056 -0.696082,1.65365 -0.476741,0.68283 -1.856961,2.60563 -3.066996,4.27312 -2.240975,3.08818 -2.313533,3.23075 -1.899626,3.74809 l 5.17e-4,-5.1e-4 c 0.231657,0.28956 0.821818,0.18994 1.175639,-0.19844 0.182284,-0.2001 0.71876,-0.89959 1.192175,-1.55443 0.768858,-1.06351 3.940154,-5.39702 4.282943,-5.85235 0.111408,-0.14798 0.249795,-0.12824 0.793233,0.11214 1.003422,0.44386 1.894605,0.64423 2.842204,0.63923 l 0.859896,-0.004 -0.463021,-0.35709 c -0.62412,-0.48139 -2.116667,-1.89924 -2.116667,-2.01073 0,-0.0492 0.372074,-0.0373 0.826823,0.0264 1.510749,0.2116 4.428391,-0.25659 5.711279,-0.91674 0.46312,-0.23832 0.386641,-0.29235 -0.888317,-0.62684 -0.49431,-0.12969 -0.87451,-0.2602 -0.84491,-0.2899 0.02963,-0.0296 0.653369,-0.19921 1.386479,-0.37672 2.357547,-0.57085 5.208492,-1.85488 6.674011,-3.00602 0.567219,-0.44554 0.625307,-0.63107 0.198437,-0.63407 -0.353119,-0.002 -0.832093,-0.25552 -0.496093,-0.26252 0.382729,-0.008 2.988974,-1.34782 4.233333,-2.17712 0.691219,-0.46066 1.662535,-1.2099 2.158524,-1.66502 0.986829,-0.90569 0.985854,-1.04758 -0.0088,-1.05058 -0.600239,-0.002 -0.757252,-0.18832 -0.264583,-0.31368 0.50521,-0.12856 2.367769,-1.34545 3.306258,-2.16007 1.115269,-0.96812 1.369486,-1.30922 1.161686,-1.5596 -0.121899,-0.14689 0.06419,-0.3891 0.935861,-1.21801 1.762298,-1.67584 3.563026,-4.2884 3.140376,-4.55631 -0.09725,-0.0616 -0.319913,-0.11321 -0.494543,-0.11421 -0.2893,-0.002 -0.271672,-0.0351 0.198437,-0.37775 0.63698,-0.46423 1.428794,-1.3205 2.237073,-2.41846 0.48557,-0.65963 0.603506,-0.9186 0.558106,-1.22783 -0.0436,-0.29703 0.05204,-0.53539 0.394808,-0.98443 0.616029,-0.80704 0.988287,-1.57364 1.552876,-3.19568 1.001219,-2.8764 1.58777,-5.84392 1.74253,-8.81703 0.08425,-1.6185 -0.118858,-4.36924 -0.338998,-4.58938 -0.02417,-0.0242 -0.0797,-0.0384 -0.161747,-0.0434 z m -4.141349,2.40089 c 0.06716,0.0128 0.04521,0.11667 -0.05994,0.31316 -0.17192,0.32116 -0.187985,1.51921 -0.02791,2.07739 0.14059,0.49021 0.327584,0.24884 -5.90765,7.62796 -4.056326,4.80046 -5.89539,7.02239 -13.718542,16.5747 -3.239357,3.95533 -5.001614,6.21133 -8.293551,10.6164 -2.08894,2.7953 -2.964539,3.86953 -3.153813,3.86953 -0.41017,0 -0.319436,-0.40276 0.285254,-1.26762 0.583814,-0.835 2.665281,-3.11026 4.228166,-5.65133 0.276073,-0.44886 -1.067083,-2.56325 -1.147734,-3.70469 -0.06025,-0.853 -0.01829,-1.30978 0.196888,-2.1425 0.263039,-1.0179 1.473759,-3.71079 1.546158,-3.43907 0.01936,0.0727 0.133485,0.93023 0.253215,1.90583 0.11973,0.9756 0.310363,2.27107 0.527616,2.84427 l 0.28961,0.7641 c 0.518747,0.84018 1.215942,0.38951 1.257395,-0.005 l -0.369834,-1.27609 c -0.585418,-2.01996 -0.496371,-4.79856 0.129708,-6.62802 0.36569,-1.06856 1.151643,-2.69855 1.301213,-2.69855 0.0571,0 0.10387,0.27131 0.10387,0.60255 0,0.76462 0.352856,2.33263 0.597896,2.65617 0.16691,0.22038 0.18837,0.13951 0.19637,-0.74517 0.01173,-1.32002 0.282838,-2.77608 0.727088,-3.90519 0.385779,-0.98053 1.117794,-2.36313 1.205094,-2.27583 0.02872,0.0287 -0.01527,0.69154 -0.09767,1.47278 -0.12499,1.18539 -0.113601,1.70884 0.06873,3.16363 0.12016,0.95879 0.300993,2.05554 0.402043,2.43757 0.363313,1.42095 1.373609,0.36314 1.372009,0.12196 l -0.155029,-0.5519 -0.100252,-0.46302 c -0.4382,-2.02553 -0.390363,-5.02021 0.104386,-6.54844 0.47179,-1.45733 2.078644,-4.11404 2.960543,-4.89479 l 0.29869,-0.26459 -0.07958,0.33073 c -0.2787,1.1537 -0.381844,2.50268 -0.318844,4.16719 0.06515,1.72237 0.384794,3.82741 0.619084,4.07675 0.0557,0.0593 0.283943,-0.12345 0.507463,-0.40566 0.371859,-0.46951 0.395382,-0.55707 0.279052,-1.03352 -0.06993,-0.28639 -0.162472,-1.29482 -0.205672,-2.24069 -0.09138,-2.00088 0.109622,-3.44814 0.680062,-4.89583 0.41645,-1.05687 1.559801,-2.85243 2.18953,-3.43855 l 0.426331,-0.39687 -0.07803,0.33072 c -0.29968,1.27125 -0.486792,2.90944 -0.486792,4.25814 0,1.50715 0.213792,3.41479 0.382922,3.41478 0.0439,0 0.249253,-0.2123 0.456303,-0.4718 0.375699,-0.47082 0.376368,-0.4758 0.362768,-2.34818 -0.02538,-3.50941 0.660287,-5.52123 2.527495,-7.41815 0.594869,-0.60435 1.025719,-0.9573 0.987019,-0.80822 -0.03779,0.14552 -0.162712,0.59199 -0.277502,0.99218 -0.31074,1.08328 -0.403336,2.96223 -0.208256,4.21628 0.09201,0.59148 0.204414,1.07326 0.250114,1.07126 0.30189,-0.0151 0.513413,-0.70458 0.598413,-1.95079 0.2086,-3.05968 1.238745,-5.35178 2.926953,-6.5133 0.31583,-0.21729 0.604738,-0.39532 0.642338,-0.39532 0.03755,0 -0.05001,0.34231 -0.194303,0.76068 -0.27755,0.80476 -0.361113,2.54614 -0.156063,3.25148 l 0.109037,0.37362 0.250114,-0.27647 c 0.14974,-0.16546 0.294935,-0.60762 0.361735,-1.10123 0.24379,-1.80137 0.959714,-3.23021 1.954403,-3.90053 0.25057,-0.16884 0.406717,-0.24738 0.473873,-0.23461 z m 3.203422,3.43079 c 0.01803,0.0178 -0.0721,0.44465 -0.199988,0.94827 -0.26551,1.04551 -0.680521,1.63612 -1.62109,2.30632 -0.355809,0.25354 -0.648673,0.50557 -0.652673,0.56017 -0.01178,0.18868 0.72354,0.092 1.30328,-0.17105 0.320059,-0.14526 0.602785,-0.24274 0.628385,-0.21704 0.02566,0.0257 -0.192752,0.38064 -0.485242,0.7891 -0.379879,0.53049 -0.861579,0.95963 -1.686718,1.50172 -1.386369,0.91083 -1.277562,0.83008 -1.210262,0.89658 0.102079,0.10083 1.44948,-0.19844 2.04742,-0.45475 0.564559,-0.24194 0.586547,-0.24277 0.463537,-0.0129 -0.486059,0.90822 -2.700696,2.37011 -4.836914,3.19205 -1.128149,0.43404 -1.163175,0.52807 -0.192236,0.52607 1.048089,-0.003 2.361188,-0.27172 3.424597,-0.70125 l 0.802018,-0.32349 -0.297656,0.53536 c -0.773369,1.39309 -2.306172,2.63383 -4.04213,3.27112 -0.74923,0.27505 -0.955294,0.39806 -0.780314,0.46716 0.214539,0.0847 2.04339,-0.0939 2.871659,-0.28061 0.29344,-0.0661 0.272104,-0.023 -0.187586,0.38344 -1.240318,1.09651 -3.20638,2.00519 -5.633247,2.60346 -0.90951,0.22421 -1.742944,0.44448 -1.852084,0.48938 -0.699179,0.28806 2.713802,0.38064 4.53099,0.12299 0.636659,-0.0903 1.155384,-0.13094 1.152384,-0.0904 -0.01036,0.15228 -1.216558,1.0215 -2.223637,1.60249 -1.213828,0.7003 -3.032142,1.44228 -5.0276,2.05155 -1.655368,0.50549 -1.56719,0.66985 0.290939,0.54209 1.363308,-0.0937 2.925226,-0.44401 4.156335,-0.93173 0.456,-0.1807 0.791591,-0.26757 0.745691,-0.19327 -0.04591,0.0743 -0.55133,0.48155 -1.122929,0.90537 -1.092489,0.81003 -2.213506,1.39347 -3.428214,1.78336 -1.173499,0.37664 -1.084957,0.46519 0.469222,0.46819 l 1.449007,0.003 -0.910022,0.58911 c -1.635519,1.0595 -3.39414,1.59726 -6.332947,1.93528 -0.782169,0.09 -1.422135,0.2036 -1.422135,0.2527 0,0.17454 4.056042,0.89126 5.22552,0.92346 0.23634,0.006 0.229224,0.028 -0.06614,0.19895 -0.78424,0.45401 -2.561683,0.85154 -5.34076,1.19528 -1.086049,0.13433 -0.509794,0.33397 1.254704,0.43408 l 1.63866,0.093 -0.661459,0.30799 c -1.253218,0.58378 -2.385024,0.97061 -3.770312,1.28829 v -5.2e-4 c -0.763989,0.1752 -1.924848,0.35205 -2.579688,0.39275 l -1.190625,0.0739 1.054716,-0.4749 c 1.305139,-0.58747 1.46952,-0.73278 0.82889,-0.73278 -0.266239,0 -0.934067,-0.067 -1.484147,-0.14882 -0.810609,-0.12057 -0.972258,-0.18259 -0.853178,-0.32608 0.19697,-0.23732 1.999583,-0.92351 3.411162,-1.29863 1.232048,-0.32742 1.224215,-0.34845 -0.245463,-0.61908 -1.315339,-0.24222 -1.3381,-0.30696 -0.249081,-0.71831 3.295247,-1.2447 5.091789,-1.99734 6.179468,-2.5895 0.678969,-0.36965 1.204704,-0.70216 1.168404,-0.73846 -0.03634,-0.0363 -0.674292,0.0581 -1.418001,0.20981 -1.424959,0.29063 -4.011783,0.38253 -4.156852,0.14779 -0.04346,-0.0703 0.325161,-0.54975 0.819071,-1.06557 l 0.898136,-0.93792 2.315105,-0.77773 c 3.647666,-1.22588 3.624286,-1.20303 1.124479,-1.11053 l -2.116667,0.0786 0.529167,-0.49041 c 0.907799,-0.84053 3.332902,-2.35145 6.378938,-3.97444 0.52545,-0.27997 0.934155,-0.53035 0.907955,-0.55655 -0.02614,-0.0262 -0.956258,0.16591 -2.067057,0.42685 -1.110789,0.26095 -2.069619,0.45768 -2.130619,0.43718 -0.06097,-0.0205 0.179374,-0.33543 0.534334,-0.6997 0.53873,-0.55286 0.904743,-0.76879 2.214852,-1.30741 2.675907,-1.10012 3.762804,-1.56979 3.723804,-1.60869 -0.02064,-0.0206 -0.781354,0.0491 -1.690853,0.15503 -2.449098,0.28519 -2.423049,0.30178 -1.35754,-0.85318 0.795339,-0.86211 1.091958,-1.07111 2.680457,-1.88981 0.982269,-0.50625 1.607352,-0.89189 1.389062,-0.85679 -0.21828,0.035 -0.71868,0.10343 -1.11156,0.15193 l -0.714168,0.0884 0.28577,-0.40152 c 0.46575,-0.65409 0.957406,-0.99803 3.088184,-2.16163 2.187638,-1.19464 2.235073,-1.30779 0.446484,-1.06815 -0.482739,0.0646 -0.861492,0.0724 -0.841292,0.0176 0.14562,-0.39472 1.966389,-2.27826 2.584338,-2.67374 1.247819,-0.79858 3.138767,-1.92461 3.173967,-1.88981 z m -24.841378,31.74484 c 1.371895,-0.0223 2.654681,-0.002 2.570386,0.0827 -0.07077,0.0708 -0.597572,0.2488 -1.170471,0.39532 -0.70732,0.18086 -1.427212,0.26103 -2.243791,0.25063 -1.251569,-0.016 -1.428589,-0.0384 -2.194698,-0.28008 l -0.463021,-0.14573 0.396875,-0.12764 c 0.27204,-0.0873 1.732825,-0.15285 3.10472,-0.17518 z"
           sodipodi:nodetypes="sssssscssscsssscsssssssssssssssccssssccssssscssccsccscssccsssssssssssssssscssssccccsssscsscsccccsccccssssscccssscssssccssscccsssssccccssscssccccscssscscscscssscccsssssccccccccssssssssssccccccssssssssssccccsccsssscscccsccss" />
      </g>
    </g>
  </g>
</svg>
