<?xml version="1.0" standalone="no"?>
<!DOCTYPE svg PUBLIC "-//W3C//DTD SVG 20010904//EN"
 "http://www.w3.org/TR/2001/REC-SVG-20010904/DTD/svg10.dtd">
<svg version="1.0" xmlns="http://www.w3.org/2000/svg"
 width="700.000000pt" height="700.000000pt" viewBox="0 0 700.000000 700.000000"
 preserveAspectRatio="xMidYMid meet">
<metadata>
Created by potrace 1.14, written by Peter Selinger 2001-2017
</metadata>
<g transform="translate(0.000000,700.000000) scale(0.100000,-0.100000)"
fill="#000000" stroke="none">
<path d="M3455 6985 c-617 -86 -1180 -425 -1560 -940 -100 -136 -227 -362
-289 -515 -15 -36 -31 -74 -36 -85 -44 -97 -119 -394 -139 -550 -17 -134 -20
-165 -27 -310 -3 -77 -8 -142 -10 -145 -3 -2 -76 -5 -162 -6 -217 -2 -280 -14
-367 -69 -116 -74 -183 -177 -215 -334 -15 -73 -18 -128 -15 -356 2 -268 7
-327 27 -375 66 -157 162 -255 282 -292 64 -19 96 -21 355 -22 l285 -2 7 -32
c13 -66 1 -467 -16 -532 -2 -8 -7 -31 -10 -50 -28 -165 -118 -387 -221 -542
-137 -205 -300 -370 -527 -530 -56 -39 -104 -74 -107 -76 -3 -2 6 -12 20 -23
27 -21 90 -73 155 -128 129 -111 356 -354 453 -486 92 -126 237 -385 297 -532
l21 -53 80 61 c43 33 86 65 94 72 8 7 58 40 110 73 352 227 694 337 1050 337
90 0 205 -8 260 -19 14 -2 39 -7 55 -10 17 -3 73 -16 125 -29 95 -24 151 -43
440 -150 161 -60 352 -117 430 -130 25 -4 56 -8 70 -11 165 -26 470 -25 603 2
31 6 67 13 102 19 186 35 417 133 570 243 28 20 52 39 55 42 3 3 34 30 69 60
54 46 125 122 191 206 138 174 277 498 306 712 3 26 8 56 10 67 2 11 7 49 10
85 3 36 8 79 10 95 2 17 6 127 9 245 3 118 8 236 9 262 4 53 1 54 -56 3 -86
-77 -236 -181 -348 -241 -101 -55 -309 -129 -415 -148 -16 -3 -41 -8 -55 -11
-45 -9 -183 -19 -270 -19 -292 1 -525 63 -785 209 -312 175 -633 556 -751 893
-15 42 -16 54 -6 61 7 4 198 9 424 10 388 2 414 3 467 23 69 26 146 74 188
119 61 66 111 192 128 328 15 114 5 506 -15 595 -36 162 -173 313 -333 365
-42 14 -242 20 -649 21 -229 0 -258 2 -258 16 0 28 73 163 125 232 90 117 261
227 418 267 90 23 178 16 320 -25 60 -17 116 -33 125 -35 9 -2 51 -13 92 -24
260 -67 393 -83 710 -83 273 -1 356 6 531 48 57 13 109 26 114 28 6 1 24 6 40
11 63 16 182 69 225 101 147 105 100 281 -100 376 -434 208 -513 252 -607 341
-76 71 -127 140 -213 287 -60 102 -154 247 -192 295 -214 269 -380 407 -643
536 -173 85 -378 147 -575 174 -89 12 -405 12 -495 0z"/>
</g>
</svg>
