<?xml version="1.0" encoding="UTF-8" standalone="no"?>
<!-- Created with Inkscape (http://www.inkscape.org/) -->

<svg
   width="13.502mm"
   height="13.502mm"
   viewBox="0 0 13.502 13.502"
   version="1.1"
   id="svg1"
   inkscape:version="1.3.2 (091e20e, 2023-11-25)"
   sodipodi:docname="favicon.svg"
   xmlns:inkscape="http://www.inkscape.org/namespaces/inkscape"
   xmlns:sodipodi="http://sodipodi.sourceforge.net/DTD/sodipodi-0.dtd"
   xmlns="http://www.w3.org/2000/svg"
   xmlns:svg="http://www.w3.org/2000/svg">
  <sodipodi:namedview
     id="namedview1"
     pagecolor="#ffffff"
     bordercolor="#000000"
     borderopacity="0.25"
     inkscape:showpageshadow="2"
     inkscape:pageopacity="0.0"
     inkscape:pagecheckerboard="0"
     inkscape:deskcolor="#d1d1d1"
     inkscape:document-units="mm"
     inkscape:zoom="8.0932837"
     inkscape:cx="10.502536"
     inkscape:cy="17.792531"
     inkscape:window-width="1920"
     inkscape:window-height="1027"
     inkscape:window-x="0"
     inkscape:window-y="325"
     inkscape:window-maximized="1"
     inkscape:current-layer="layer1" />
  <defs
     id="defs1" />
  <g
     inkscape:label="Layer 1"
     inkscape:groupmode="layer"
     id="layer1">
    <g
       id="g1"
       transform="translate(1.2182956,-5.5073731e-5)">
      <path
         style="fill:#f9f9f9;stroke-width:0.264583"
         d="M 10.820958,3.3345551 9.1536805,2.4518787 7.9767786,0.98075148 6.5056514,0.45768402 5.1979829,0.42499232 3.8249307,0.94805975 2.3538036,2.4845704 1.7980444,4.478765 V 5.0672161 L 0.58845089,5.2960579 0.52306746,6.4729597 0.6538343,7.2248693 2.1576532,7.3229443 v 1.274977 l -0.5230674,1.6345857 -0.88267633,0.94806 0.84998463,1.078826 0.5884508,0.653835 1.6999693,-0.817293 2.8114876,0.555759 2.0922697,0.130767 L 10.265199,11.572867 10.624808,9.8075148 9.4152142,10.330582 7.1921774,9.9709733 5.7210502,8.4344628 5.2633662,7.2902526 H 7.4210195 L 7.8133201,6.6691099 7.6498616,5.4595164 5.2633662,5.1979829 5.8191254,3.8576226 6.7344935,3.6287805 8.4344628,4.0537727 10.199815,3.9883894 10.722883,3.6941638 Z"
         id="path1" />
      <path
         id="path2-8"
         style="fill:#9e71fe;fill-opacity:1;stroke:none;stroke-width:0;stroke-dasharray:none;stroke-opacity:1"
         d="m 6.5761285,3.234773 c -6.6e-4,5.21e-4 -0.0014,10e-4 -0.0021,0.0016 0.0016,-3.4e-4 0.0031,-6.95e-4 0.0047,-10e-4 z m -0.0021,0.0016 c -4.660116,1.010379 -4.11095,8.164367 0.903304,8.164357 1.251075,-0.002 2.435398,-0.55848 3.2282275,-1.51515 -0.560874,0.32653 -1.1920535,0.49981 -1.8339975,0.50333 -1.800529,-10e-6 -2.867081,-1.52876 -3.816821,-3.093353 h 2.623077 V 5.421203 l -0.647506,0.179318 c 0.04523,1e-5 0.08791,0.0096 0.128158,0.02325 h -0.0016 c 0.0184,0.007 0.03638,0.01487 0.05323,0.02377 0.01676,0.009 0.03294,0.01961 0.04806,0.03101 0.0019,5.8e-4 0.0016,0.0021 0.0026,0.0021 0.0402,0.0311 0.07282,0.06986 0.09715,0.113688 0.0029,0.006 0.007,0.01094 0.0088,0.01654 0.0059,0.012 0.01053,0.02409 0.01499,0.03669 0.0029,0.009 0.0061,0.01745 0.0088,0.02635 0.0029,0.0107 0.006,0.02156 0.0078,0.03256 0.0029,0.0211 0.0067,0.04218 0.0067,0.06408 -2.44e-4,0.20276 -0.164896,0.368127 -0.370003,0.371037 v 5.16e-4 c -0.0019,2e-5 -0.0032,0 -0.0062,0 h -1.498564 v -0.0021 c -0.14916,-2.7e-4 -0.40515,-6.33e-4 -0.908471,0.0021 -0.02203,5e-5 0.05102,-0.33201 0.186035,-0.616499 0.04939,-0.10388 0.103576,-0.210302 0.14211,-0.304891 h -0.05219 c 0.21686,-0.867864 0.981334,-1.636254 1.676383,-2.184363 z m 0.350883,0.0093 c -0.157501,-0.0058 -0.330638,0.02072 -0.448551,0.12609 -0.117741,0.105101 0.304237,-0.08612 0.630969,0.387573 0.326711,0.47369 3.3551125,0.193967 3.4204635,0.215491 0.06528,0.02164 0.691221,-0.838868 0.217558,-0.559656 C 9.7797735,3.984377 7.3037005,3.307167 7.3037005,3.307167 c 0,0 -0.176288,-0.05565 -0.378789,-0.06149 z M 0.59688253,5.623822 V 6.342641 7.06146 H 2.4611015 c 1.4e-4,-0.129354 -8.94e-4,-0.20032 -8.94e-4,-0.345818 0,-0.01925 -0.0025,-0.06651 -0.0152,-0.10664 -0.06556,-0.20664 -0.257234,-0.266358 -0.342705,-0.266358 l -1.01657,-3e-6 C 0.88268753,6.342719 0.71716153,6.183479 0.71026753,5.984395 c -1.47e-4,-0.0042 -2.21e-4,-0.0085 -2.24e-4,-0.01279 5.87e-4,-0.15605 0.09995,-0.295122 0.248564,-0.347782 z M 2.4611015,7.06146 V 6.342641 Z"
         sodipodi:nodetypes="ccccsccccccccccccccccccccscccccccsscscscssccccssccscccccc" />
      <path
         id="path4-0"
         style="fill:#000000;fill-opacity:1;stroke-width:0.213186"
         inkscape:label="path163813"
         d="m 6.0436275,0.00239598 c -0.349928,-0.01225 -0.625072,0.02518 -0.7673,0.05094 -0.902552,0.167046 -1.712709,0.591726 -2.367313,1.24096702 -0.353759,0.350888 -0.624841,0.72084 -0.85633,1.168976 -0.357,0.691071 -0.53161,1.368749 -0.56228,2.181956 l -0.01134,0.30021 h -0.329316 c -0.43859597,0 -0.61022297,0.0459 -0.81254697,0.2169 -0.183578,0.15513 -0.287766,0.37568 -0.32432,0.6868 -0.02523,0.21443 -0.0107,1.07179 0.02026,1.20416 0.03641,0.15523 0.138941,0.33783 0.250931,0.4472 0.134296,0.13115 0.1871,0.16449 0.32698,0.2077 0.104564,0.0324 0.167361,0.0357 0.67338597,0.0357 h 0.557949 l 0.01165,0.0835 c 0.02138,0.154208 0.01172,0.666578 -0.01647,0.879915 -0.09307,0.70201 -0.374875,1.27011 -0.89392797,1.80207 -0.198707,0.20365 -0.375375,0.34963 -0.640244,0.52886 l -0.162977,0.11027 0.204789,0.16571 c 0.269209,0.21783 0.71440897,0.66278 0.88760397,0.8875 0.274425,0.35601 0.494888,0.72709 0.669174,1.12545 l 0.0766,0.17493 0.07274,-0.0584 c 0.905133,-0.72436 1.815667,-1.05332 2.720142,-0.98309 0.444563,0.0346 0.751158,0.11417 1.347202,0.34943 0.575248,0.22708 0.918087,0.31378 1.390444,0.35175 0.50126,0.0403 1.086738,-0.039 1.524507,-0.20607 0.704728,-0.26904 1.2283135,-0.75929 1.5707355,-1.47158 0.242028,-0.50347 0.32585,-0.95926 0.34649,-1.88362 l 0.01104,-0.502 -0.04321,0.0373 c -0.454119,0.39204 -0.796095,0.592 -1.2500795,0.73164 -0.275435,0.0846 -0.481015,0.11891 -0.789355,0.1313 -0.388951,0.0156 -0.746734,-0.0345 -1.115899,-0.15619 -0.200922,-0.0662 -0.57211,-0.25933 -0.740121,-0.37784 -0.403365,-0.28453 -0.812657,-0.75011 -1.062251,-1.208087 -0.09713,-0.17822 -0.21793,-0.478268 -0.202482,-0.502998 0.0068,-0.0105 0.322731,-0.0171 0.812543,-0.0175 l 0.802003,-2.1e-4 0.12607,-0.0442 c 0.367199,-0.12806 0.55456,-0.39503 0.60974,-0.86918 0.02867,-0.24621 0.0125,-0.9666 -0.02547,-1.13324 -0.08309,-0.3647 -0.38869,-0.66753 -0.739918,-0.73337 -0.05173,-0.01 -0.444782,-0.0176 -0.881164,-0.0176 h -0.788369 l 0.01163,-0.0405 c 0.0461,-0.1592 0.224283,-0.44766 0.352165,-0.57018 0.173318,-0.166062 0.447175,-0.321112 0.664505,-0.376079 0.245311,-0.06204 0.320231,-0.05583 0.707315,0.05745 0.386812,0.113238 0.662904,0.177069 0.970544,0.224149 0.301559,0.0462 1.15571,0.0535 1.451873,0.007 C 10.401926,4.151435 10.832363,4.000311 10.97581,3.838807 11.04564,3.760097 11.06589,3.708736 11.0654,3.612473 11.0635,3.442957 10.919862,3.275421 10.677649,3.163293 c -0.07768,-0.03591 -0.144657,-0.06558 -0.148697,-0.06558 -0.0039,0 -0.140173,-0.06357 -0.302371,-0.141387 C 9.6071395,2.659015 9.3945345,2.468338 9.1150035,1.958906 8.8658835,1.504869 8.4812325,1.029387 8.1474505,0.76319698 c -0.72966,-0.581923 -1.520632,-0.740649 -2.103853,-0.76111 z m -0.128405,0.65961 c 0.455901,-0.0077 0.897873,0.08455 1.294536,0.279501 0.29778,0.14628002 0.707083,0.48047902 0.89426,0.73042302 l 0.0803,0.107637 -0.08455,0.01216 c -0.110786,0.01588 -0.163893,0.05228 -0.21178,0.145027 -0.03786,0.07344 -0.03864,0.0761 -0.01705,0.287256 0.02566,0.251044 0.01018,0.371069 -0.06733,0.513176 -0.08543,0.156678 -0.275096,0.293249 -0.46636,0.335617 -0.0462,0.01013 -0.195257,0.03064 -0.330974,0.04557 -0.779813,0.08551 -0.434128,0.197993 -0.703325,0.257574 -0.20376,0.0451 -0.532864,0.247312 -0.745447,0.458056 -0.396296,0.392872 -0.632541,0.958212 -0.689793,1.651452 l -0.01104,0.13866 1.07648,-2e-5 c 0.724391,-0.002 1.109111,0.002 1.174673,0.0151 0.07691,0.0154 0.114004,0.0358 0.175974,0.0971 0.123501,0.12209 0.138388,0.19852 0.131386,0.66806 -0.0059,0.19889 0.03574,0.60665 -0.238948,0.657 h -1.130865 c -1.055791,0.006 -1.171536,0 -1.188709,0 4.36e-4,0.16052 0.542336,2.965905 3.15662,3.540765 0.711529,0.15645 1.348593,0.0932 2.0141525,-0.15456 0.09251,-0.0345 0.170915,-0.058 0.174316,-0.0519 -0.05521,0.67352 -0.3213475,1.27576 -0.9685515,1.70068 -0.266456,0.17694 -0.57308,0.29721 -0.907559,0.35601 -0.231735,0.0408 -0.736333,0.0503 -0.963234,0.0184 -1.113178,-0.15711 -2.035382,-1.01898 -3.845352,-0.56602 -0.219018,0.0625 -0.215619,0.0536 -0.643217,0.22964 l -0.118533,0.0572 c -0.06519,0.0315 -0.204428,0.10911 -0.309683,0.17231 -0.105258,0.0632 -0.194993,0.11509 -0.199478,0.11509 -0.0057,-2e-5 -0.03238,-0.0423 -0.0614,-0.0942 -0.168051,-0.29938 -0.51932,-0.76148 -0.799563,-1.05124 l -0.163331,-0.16868 0.176299,-0.16376 c 0.939425,-0.89248 1.062947,-2.05261 1.06295,-3.257193 1e-6,-0.223659 1e-6,-0.455511 1.47e-4,-0.682432 h -0.741515 c -0.479263,0 -0.75887097,-0.007 -0.79192097,-0.0189 -0.06888,-0.0258 -0.145811,-0.10016 -0.193263,-0.18709 -0.03664,-0.0672 -0.03914,-0.0963 -0.03914,-0.4665 0,-0.43159 0.01632,-0.52491 0.112528,-0.63791 0.0979,-0.11504 0.09801,-0.12049 0.79140697,-0.12678 l 0.861902,6e-6 c 5.79e-4,-0.0819 -0.258665,-0.126566 -0.258843,-0.713636 -1.99e-4,-0.54426 0.004,-0.63686 0.04012,-0.861952 0.09045,-0.563616 0.289543,-1.104442 0.566596,-1.55191 0.303537,-0.490227 0.840088,-1.014039 1.345977,-1.314414 0.565101,-0.33551002 1.173973,-0.51099202 1.760138,-0.52096902 z M 6.3922285,1.199962 v 1.14e-4 c -0.08475,0.0058 -0.155853,0.03352 -0.237951,0.08904 -0.100994,0.06817 -0.177832,0.219361 -0.175961,0.347133 0.0019,0.126815 0.02905,0.162844 0.105555,0.162844 0.155157,0 0.149772,0.243395 0.499846,0.16408 0.09192,-0.02087 0.16059,0.0029 0.269556,0.09546 0.05289,0.04471 0.103153,0.08137 0.11154,0.08137 0.03516,0 0.05831,-0.136169 0.05142,-0.30383 -0.0068,-0.152301 -0.01462,-0.182031 -0.06587,-0.284736 -0.108007,-0.216856 -0.265032,-0.334305 -0.468047,-0.350412 -0.03216,-0.0019 -0.06189,-0.0019 -0.09028,-0.0019 z m 1.94611,0.805726 c 0,0 0.258117,0.269812 0.432219,0.43996 0.111067,0.109008 0.269147,0.241472 0.356486,0.298899 0.229543,0.150971 0.638885,0.353484 0.9498955,0.469564 0.149723,0.05583 0.347904,0.129603 0.440219,0.1643 0.09977,0.03743 0.167535,0.07334 0.167535,0.088 0,0.09636 -0.409601,0.263655 -0.8343935,0.340558 -0.229398,0.04147 -0.956686,0.04463 -1.252392,0.01073 C 8.1130355,3.761969 7.5810545,3.659575 7.2280835,3.553874 7.0252835,3.493184 6.7832345,3.3955 6.7832345,3.37433 c 0,-0.02614 0.09385,-0.03724 0.212768,-0.02518 0.307165,0.04528 0.489259,0.09947 0.754224,-0.108949 0.0097,-0.0133 0.252005,-0.138821 0.373667,-0.385816 0.164058,-0.332983 0.0097,-0.828036 0.214445,-0.84867 z m 0.396952,0.752101 c -0.04173,-0.0058 -0.05511,0.01867 -0.06102,0.06655 -0.01143,0.09277 0.185135,0.236222 0.377328,0.275661 0.117151,0.02403 0.157473,0.02432 0.183955,-0.0245 0.02741,-0.05056 -0.0059,-0.07689 -0.269557,-0.212852 C 8.8472785,2.801368 8.7770075,2.762181 8.7352625,2.75772 Z"
         sodipodi:nodetypes="ccssscssscscscccsscsscccssssscccsssssscccssssccsssccscssssscccscccssscccsccccsccccssccsccccssccccscscssccccsssccccscsssscccccccssssscsscccccsscsccs" />
      <circle
         style="fill:#ffffff;stroke-width:0.237469"
         id="path50"
         cx="6.4559655"
         cy="1.5389446"
         r="0.19586554" />
      <ellipse
         style="fill:#000000;stroke-width:0.272267"
         id="ellipse50"
         cx="6.6387711"
         cy="-0.27941978"
         rx="0.25710461"
         ry="0.1961471"
         transform="rotate(17.342849)" />
    </g>
  </g>
</svg>
