<?xml version="1.0" encoding="UTF-8" standalone="no"?>
<!-- Created with Inkscape (http://www.inkscape.org/) -->

<svg
   width="65.018997mm"
   height="13.502mm"
   viewBox="0 0 65.019 13.502"
   version="1.1"
   id="svg1"
   inkscape:version="1.3.2 (091e20e, 2023-11-25)"
   sodipodi:docname="depositduck.svg"
   xmlns:inkscape="http://www.inkscape.org/namespaces/inkscape"
   xmlns:sodipodi="http://sodipodi.sourceforge.net/DTD/sodipodi-0.dtd"
   xmlns="http://www.w3.org/2000/svg"
   xmlns:svg="http://www.w3.org/2000/svg">
  <sodipodi:namedview
     id="namedview1"
     pagecolor="#ffffff"
     bordercolor="#000000"
     borderopacity="0.25"
     inkscape:showpageshadow="2"
     inkscape:pageopacity="0.0"
     inkscape:pagecheckerboard="0"
     inkscape:deskcolor="#d1d1d1"
     inkscape:document-units="mm"
     inkscape:zoom="8.0932837"
     inkscape:cx="10.255417"
     inkscape:cy="30.395574"
     inkscape:window-width="1392"
     inkscape:window-height="1027"
     inkscape:window-x="0"
     inkscape:window-y="325"
     inkscape:window-maximized="0"
     inkscape:current-layer="layer1" />
  <defs
     id="defs1" />
  <g
     inkscape:label="Layer 1"
     inkscape:groupmode="layer"
     id="layer1">
    <path
       style="fill:#f9f9f9;stroke-width:0.264583"
       d="M 10.820958,3.3345551 9.1536805,2.4518787 7.9767786,0.98075148 6.5056514,0.45768402 5.1979829,0.42499232 3.8249307,0.94805975 2.3538036,2.4845704 1.7980444,4.478765 V 5.0672161 L 0.58845089,5.2960579 0.52306746,6.4729597 0.6538343,7.2248693 2.1576532,7.3229443 v 1.274977 l -0.5230674,1.6345857 -0.88267633,0.94806 0.84998463,1.078826 0.5884508,0.653835 1.6999693,-0.817293 2.8114876,0.555759 2.0922697,0.130767 L 10.265199,11.572867 10.624808,9.8075148 9.4152142,10.330582 7.1921774,9.9709733 5.7210502,8.4344628 5.2633662,7.2902526 H 7.4210195 L 7.8133201,6.6691099 7.6498616,5.4595164 5.2633662,5.1979829 5.8191254,3.8576226 6.7344935,3.6287805 8.4344628,4.0537727 10.199815,3.9883894 10.722883,3.6941638 Z"
       id="path1" />
    <path
       id="path2-8"
       style="fill:#9e71fe;fill-opacity:1;stroke:none;stroke-width:0;stroke-dasharray:none;stroke-opacity:1"
       d="m 6.5761285,3.234773 c -6.6e-4,5.21e-4 -0.0014,10e-4 -0.0021,0.0016 0.0016,-3.4e-4 0.0031,-6.95e-4 0.0047,-10e-4 z m -0.0021,0.0016 c -4.660116,1.010379 -4.11095,8.164367 0.903304,8.164357 1.251075,-0.002 2.435398,-0.55848 3.2282275,-1.51515 -0.560874,0.32653 -1.1920535,0.49981 -1.8339975,0.50333 -1.800529,-10e-6 -2.867081,-1.52876 -3.816821,-3.093353 h 2.623077 V 5.421203 l -0.647506,0.179318 c 0.04523,1e-5 0.08791,0.0096 0.128158,0.02325 h -0.0016 c 0.0184,0.007 0.03638,0.01487 0.05323,0.02377 0.01676,0.009 0.03294,0.01961 0.04806,0.03101 0.0019,5.8e-4 0.0016,0.0021 0.0026,0.0021 0.0402,0.0311 0.07282,0.06986 0.09715,0.113688 0.0029,0.006 0.007,0.01094 0.0088,0.01654 0.0059,0.012 0.01053,0.02409 0.01499,0.03669 0.0029,0.009 0.0061,0.01745 0.0088,0.02635 0.0029,0.0107 0.006,0.02156 0.0078,0.03256 0.0029,0.0211 0.0067,0.04218 0.0067,0.06408 -2.44e-4,0.20276 -0.164896,0.368127 -0.370003,0.371037 v 5.16e-4 c -0.0019,2e-5 -0.0032,0 -0.0062,0 h -1.498564 v -0.0021 c -0.14916,-2.7e-4 -0.40515,-6.33e-4 -0.908471,0.0021 -0.02203,5e-5 0.05102,-0.33201 0.186035,-0.616499 0.04939,-0.10388 0.103576,-0.210302 0.14211,-0.304891 h -0.05219 c 0.21686,-0.867864 0.981334,-1.636254 1.676383,-2.184363 z m 0.350883,0.0093 c -0.157501,-0.0058 -0.330638,0.02072 -0.448551,0.12609 -0.117741,0.105101 0.304237,-0.08612 0.630969,0.387573 0.326711,0.47369 3.3551125,0.193967 3.4204635,0.215491 0.06528,0.02164 0.691221,-0.838868 0.217558,-0.559656 C 9.7797735,3.984377 7.3037005,3.307167 7.3037005,3.307167 c 0,0 -0.176288,-0.05565 -0.378789,-0.06149 z M 0.59688253,5.623822 V 6.342641 7.06146 H 2.4611015 c 1.4e-4,-0.129354 -8.94e-4,-0.20032 -8.94e-4,-0.345818 0,-0.01925 -0.0025,-0.06651 -0.0152,-0.10664 -0.06556,-0.20664 -0.257234,-0.266358 -0.342705,-0.266358 l -1.01657,-3e-6 C 0.88268753,6.342719 0.71716153,6.183479 0.71026753,5.984395 c -1.47e-4,-0.0042 -2.21e-4,-0.0085 -2.24e-4,-0.01279 5.87e-4,-0.15605 0.09995,-0.295122 0.248564,-0.347782 z M 2.4611015,7.06146 V 6.342641 Z"
       sodipodi:nodetypes="ccccsccccccccccccccccccccscccccccsscscscssccccssccscccccc" />
    <path
       id="path4-0"
       style="fill:#000000;fill-opacity:1;stroke-width:0.213186"
       inkscape:label="path163813"
       d="m 6.0436275,0.00239598 c -0.349928,-0.01225 -0.625072,0.02518 -0.7673,0.05094 -0.902552,0.167046 -1.712709,0.591726 -2.367313,1.24096702 -0.353759,0.350888 -0.624841,0.72084 -0.85633,1.168976 -0.357,0.691071 -0.53161,1.368749 -0.56228,2.181956 l -0.01134,0.30021 h -0.329316 c -0.43859597,0 -0.61022297,0.0459 -0.81254697,0.2169 -0.183578,0.15513 -0.287766,0.37568 -0.32432,0.6868 -0.02523,0.21443 -0.0107,1.07179 0.02026,1.20416 0.03641,0.15523 0.138941,0.33783 0.250931,0.4472 0.134296,0.13115 0.1871,0.16449 0.32698,0.2077 0.104564,0.0324 0.167361,0.0357 0.67338597,0.0357 h 0.557949 l 0.01165,0.0835 c 0.02138,0.154208 0.01172,0.666578 -0.01647,0.879915 -0.09307,0.70201 -0.374875,1.27011 -0.89392797,1.80207 -0.198707,0.20365 -0.375375,0.34963 -0.640244,0.52886 l -0.162977,0.11027 0.204789,0.16571 c 0.269209,0.21783 0.71440897,0.66278 0.88760397,0.8875 0.274425,0.35601 0.494888,0.72709 0.669174,1.12545 l 0.0766,0.17493 0.07274,-0.0584 c 0.905133,-0.72436 1.815667,-1.05332 2.720142,-0.98309 0.444563,0.0346 0.751158,0.11417 1.347202,0.34943 0.575248,0.22708 0.918087,0.31378 1.390444,0.35175 0.50126,0.0403 1.086738,-0.039 1.524507,-0.20607 0.704728,-0.26904 1.2283135,-0.75929 1.5707355,-1.47158 0.242028,-0.50347 0.32585,-0.95926 0.34649,-1.88362 l 0.01104,-0.502 -0.04321,0.0373 c -0.454119,0.39204 -0.796095,0.592 -1.2500795,0.73164 -0.275435,0.0846 -0.481015,0.11891 -0.789355,0.1313 -0.388951,0.0156 -0.746734,-0.0345 -1.115899,-0.15619 -0.200922,-0.0662 -0.57211,-0.25933 -0.740121,-0.37784 -0.403365,-0.28453 -0.812657,-0.75011 -1.062251,-1.208087 -0.09713,-0.17822 -0.21793,-0.478268 -0.202482,-0.502998 0.0068,-0.0105 0.322731,-0.0171 0.812543,-0.0175 l 0.802003,-2.1e-4 0.12607,-0.0442 c 0.367199,-0.12806 0.55456,-0.39503 0.60974,-0.86918 0.02867,-0.24621 0.0125,-0.9666 -0.02547,-1.13324 -0.08309,-0.3647 -0.38869,-0.66753 -0.739918,-0.73337 -0.05173,-0.01 -0.444782,-0.0176 -0.881164,-0.0176 h -0.788369 l 0.01163,-0.0405 c 0.0461,-0.1592 0.224283,-0.44766 0.352165,-0.57018 0.173318,-0.166062 0.447175,-0.321112 0.664505,-0.376079 0.245311,-0.06204 0.320231,-0.05583 0.707315,0.05745 0.386812,0.113238 0.662904,0.177069 0.970544,0.224149 0.301559,0.0462 1.15571,0.0535 1.451873,0.007 C 10.401926,4.151435 10.832363,4.000311 10.97581,3.838807 11.04564,3.760097 11.06589,3.708736 11.0654,3.612473 11.0635,3.442957 10.919862,3.275421 10.677649,3.163293 c -0.07768,-0.03591 -0.144657,-0.06558 -0.148697,-0.06558 -0.0039,0 -0.140173,-0.06357 -0.302371,-0.141387 C 9.6071395,2.659015 9.3945345,2.468338 9.1150035,1.958906 8.8658835,1.504869 8.4812325,1.029387 8.1474505,0.76319698 c -0.72966,-0.581923 -1.520632,-0.740649 -2.103853,-0.76111 z m -0.128405,0.65961 c 0.455901,-0.0077 0.897873,0.08455 1.294536,0.279501 0.29778,0.14628002 0.707083,0.48047902 0.89426,0.73042302 l 0.0803,0.107637 -0.08455,0.01216 c -0.110786,0.01588 -0.163893,0.05228 -0.21178,0.145027 -0.03786,0.07344 -0.03864,0.0761 -0.01705,0.287256 0.02566,0.251044 0.01018,0.371069 -0.06733,0.513176 -0.08543,0.156678 -0.275096,0.293249 -0.46636,0.335617 -0.0462,0.01013 -0.195257,0.03064 -0.330974,0.04557 -0.779813,0.08551 -0.434128,0.197993 -0.703325,0.257574 -0.20376,0.0451 -0.532864,0.247312 -0.745447,0.458056 -0.396296,0.392872 -0.632541,0.958212 -0.689793,1.651452 l -0.01104,0.13866 1.07648,-2e-5 c 0.724391,-0.002 1.109111,0.002 1.174673,0.0151 0.07691,0.0154 0.114004,0.0358 0.175974,0.0971 0.123501,0.12209 0.138388,0.19852 0.131386,0.66806 -0.0059,0.19889 0.03574,0.60665 -0.238948,0.657 h -1.130865 c -1.055791,0.006 -1.171536,0 -1.188709,0 4.36e-4,0.16052 0.542336,2.965905 3.15662,3.540765 0.711529,0.15645 1.348593,0.0932 2.0141525,-0.15456 0.09251,-0.0345 0.170915,-0.058 0.174316,-0.0519 -0.05521,0.67352 -0.3213475,1.27576 -0.9685515,1.70068 -0.266456,0.17694 -0.57308,0.29721 -0.907559,0.35601 -0.231735,0.0408 -0.736333,0.0503 -0.963234,0.0184 -1.113178,-0.15711 -2.035382,-1.01898 -3.845352,-0.56602 -0.219018,0.0625 -0.215619,0.0536 -0.643217,0.22964 l -0.118533,0.0572 c -0.06519,0.0315 -0.204428,0.10911 -0.309683,0.17231 -0.105258,0.0632 -0.194993,0.11509 -0.199478,0.11509 -0.0057,-2e-5 -0.03238,-0.0423 -0.0614,-0.0942 -0.168051,-0.29938 -0.51932,-0.76148 -0.799563,-1.05124 l -0.163331,-0.16868 0.176299,-0.16376 c 0.939425,-0.89248 1.062947,-2.05261 1.06295,-3.257193 1e-6,-0.223659 1e-6,-0.455511 1.47e-4,-0.682432 h -0.741515 c -0.479263,0 -0.75887097,-0.007 -0.79192097,-0.0189 -0.06888,-0.0258 -0.145811,-0.10016 -0.193263,-0.18709 -0.03664,-0.0672 -0.03914,-0.0963 -0.03914,-0.4665 0,-0.43159 0.01632,-0.52491 0.112528,-0.63791 0.0979,-0.11504 0.09801,-0.12049 0.79140697,-0.12678 l 0.861902,6e-6 c 5.79e-4,-0.0819 -0.258665,-0.126566 -0.258843,-0.713636 -1.99e-4,-0.54426 0.004,-0.63686 0.04012,-0.861952 0.09045,-0.563616 0.289543,-1.104442 0.566596,-1.55191 0.303537,-0.490227 0.840088,-1.014039 1.345977,-1.314414 0.565101,-0.33551002 1.173973,-0.51099202 1.760138,-0.52096902 z M 6.3922285,1.199962 v 1.14e-4 c -0.08475,0.0058 -0.155853,0.03352 -0.237951,0.08904 -0.100994,0.06817 -0.177832,0.219361 -0.175961,0.347133 0.0019,0.126815 0.02905,0.162844 0.105555,0.162844 0.155157,0 0.149772,0.243395 0.499846,0.16408 0.09192,-0.02087 0.16059,0.0029 0.269556,0.09546 0.05289,0.04471 0.103153,0.08137 0.11154,0.08137 0.03516,0 0.05831,-0.136169 0.05142,-0.30383 -0.0068,-0.152301 -0.01462,-0.182031 -0.06587,-0.284736 -0.108007,-0.216856 -0.265032,-0.334305 -0.468047,-0.350412 -0.03216,-0.0019 -0.06189,-0.0019 -0.09028,-0.0019 z m 1.94611,0.805726 c 0,0 0.258117,0.269812 0.432219,0.43996 0.111067,0.109008 0.269147,0.241472 0.356486,0.298899 0.229543,0.150971 0.638885,0.353484 0.9498955,0.469564 0.149723,0.05583 0.347904,0.129603 0.440219,0.1643 0.09977,0.03743 0.167535,0.07334 0.167535,0.088 0,0.09636 -0.409601,0.263655 -0.8343935,0.340558 -0.229398,0.04147 -0.956686,0.04463 -1.252392,0.01073 C 8.1130355,3.761969 7.5810545,3.659575 7.2280835,3.553874 7.0252835,3.493184 6.7832345,3.3955 6.7832345,3.37433 c 0,-0.02614 0.09385,-0.03724 0.212768,-0.02518 0.307165,0.04528 0.489259,0.09947 0.754224,-0.108949 0.0097,-0.0133 0.252005,-0.138821 0.373667,-0.385816 0.164058,-0.332983 0.0097,-0.828036 0.214445,-0.84867 z m 0.396952,0.752101 c -0.04173,-0.0058 -0.05511,0.01867 -0.06102,0.06655 -0.01143,0.09277 0.185135,0.236222 0.377328,0.275661 0.117151,0.02403 0.157473,0.02432 0.183955,-0.0245 0.02741,-0.05056 -0.0059,-0.07689 -0.269557,-0.212852 C 8.8472785,2.801368 8.7770075,2.762181 8.7352625,2.75772 Z"
       sodipodi:nodetypes="ccssscssscscscccsscsscccssssscccsssssscccssssccsssccscssssscccscccssscccsccccsccccssccsccccssccccscscssccccsssccccscsssscccccccssssscsscccccsscsccs" />
    <path
       id="path98"
       style="fill:#9e71fe;fill-opacity:1;stroke-width:0.465252"
       d="m 62.31938,3.070597 -0.11889,0.0202 c -0.19173,0.03236 -1.49415,0.202506 -1.5496,0.202506 -0.0435,0 -0.0509,0.547584 -0.0509,3.530099 l -0.002,3.530098 h 0.85918 0.85917 l 0.01,-1.24658 0.0105,-1.246954 0.44066,1.237584 0.44064,1.23795 0.90831,0.01 c 0.85342,0.009 0.90685,0.006 0.89031,-0.0548 -0.01,-0.0356 -0.25038,-0.66912 -0.53479,-1.40784 -0.28439,-0.738734 -0.51715,-1.357571 -0.51715,-1.375211 0,-0.0176 0.23229,-0.606797 0.51602,-1.309202 0.28377,-0.702391 0.52366,-1.297525 0.53404,-1.322712 0.0144,-0.03638 -0.17383,-0.04557 -0.87231,-0.04504 l -0.89105,7.26e-4 -0.43503,1.142324 c -0.23913,0.628367 -0.44867,1.158114 -0.46616,1.177204 -0.0178,0.0196 -0.0318,-0.863444 -0.0318,-2.022508 z m -15.72813,0.33377 c -0.75958,-0.0044 -1.46522,7.25e-4 -1.46522,0.01872 0,0.01094 0.1153,0.305538 0.25615,0.654412 l 0.25577,0.634167 v 2.820923 2.820921 l 1.10669,-3.7e-4 c 1.25918,-6.6e-4 1.86475,-0.0403 2.25765,-0.14814 C 50.141,9.89275 50.60839,9.02395 50.67414,7.097942 50.73774,5.231395 50.35997,4.138955 49.50669,3.720851 49.16442,3.553135 48.89598,3.486432 48.37937,3.440709 48.16432,3.421649 47.35084,3.408519 46.59125,3.404329 Z M 59.0983,4.758581 c -0.61671,-0.04714 -1.29171,0.05685 -1.75286,0.29026 -0.90942,0.460337 -1.34266,1.539601 -1.21208,3.018935 0.0724,0.818954 0.25624,1.318114 0.63417,1.722114 0.24946,0.26669 0.65312,0.48945 1.01557,0.56028 0.11065,0.0216 0.23438,0.0463 0.27451,0.054 l 0.002,-3.8e-4 c 0.29252,0.0576 1.27541,0.004 1.72848,-0.0934 l 0.19202,-0.0416 V 9.59412 8.91907 l -0.0821,0.0206 c -0.23132,0.0578 -0.75461,0.13352 -0.9218,0.13352 -0.47187,0 -0.8077,-0.22038 -0.97507,-0.640167 -0.0811,-0.20295 -0.0874,-0.26911 -0.0874,-0.877934 -4e-5,-0.751997 0.0475,-0.985482 0.24714,-1.212825 0.21175,-0.241197 0.59212,-0.353911 0.62854,-0.186379 0.01,0.0453 0.0535,0.267556 0.0971,0.493907 l 0.0795,0.4114 h 0.48939 0.48903 L 59.93444,5.992 59.92394,4.92243 59.68617,4.85719 C 59.50359,4.807 59.30447,4.77428 59.0989,4.75856 Z m -7.86313,0.07127 3.8e-4,2.057761 c 3e-4,2.115208 0.0132,2.353328 0.15001,2.718918 0.12482,0.33363 0.47745,0.63767 0.89218,0.76917 0.22458,0.0713 0.63474,0.0622 0.90156,-0.0203 0.12794,-0.0395 0.34523,-0.1399 0.48265,-0.22276 0.13747,-0.0829 0.25408,-0.14492 0.2599,-0.13839 0.006,0.006 0.0346,0.0861 0.0642,0.17664 l 0.0536,0.16464 0.73767,0.0101 0.73804,0.01 V 7.592839 4.830037 H 54.65543 53.79588 V 6.909552 8.98867 l -0.0934,0.0424 c -0.0512,0.0234 -0.18057,0.0428 -0.28728,0.0428 -0.23264,0 -0.36005,-0.0956 -0.42115,-0.31579 -0.0256,-0.0926 -0.0393,-0.797254 -0.0395,-2.034858 V 4.830098 h -0.85993 z m -3.73148,0.102385 0.3019,0.01391 c 0.4933,0.02291 0.65676,0.151343 0.78454,0.615415 0.0555,0.199541 0.0659,0.38801 0.066,1.170821 1.6e-4,0.981684 -0.0337,1.302614 -0.16914,1.609591 -0.0891,0.20208 -0.23153,0.358217 -0.38739,0.424907 h -3.8e-4 c -0.0647,0.0277 -0.22521,0.0506 -0.35665,0.0506 H 47.50369 V 6.874872 Z" />
    <path
       id="path101"
       style="fill:#000000;fill-opacity:1;stroke-width:0.465252"
       d="M 39.23643,3.074094 V 3.71426 4.354417 h 0.89631 0.8963 V 3.71426 3.074094 h -0.8963 z M 15.521788,3.404489 c -0.76781,-0.0061 -1.49034,-0.0053 -1.49034,0.0097 0,0.0061 0.11531,0.29752 0.25614,0.64767 l 0.25614,0.636405 v 2.827685 2.827661 l 1.10669,-3.8e-4 c 1.64732,-7.2e-4 2.17791,-0.0608 2.68894,-0.30301 0.90809,-0.43039 1.30224,-1.562517 1.24245,-3.56909 -0.0391,-1.311885 -0.25204,-1.993646 -0.77781,-2.490907 -0.33987,-0.321412 -0.79276,-0.485096 -1.51922,-0.549412 -0.18217,-0.016 -0.99518,-0.03 -1.76299,-0.03638 z M 42.2385,3.584868 42.228,4.197284 l -0.01,0.612791 -0.35702,0.01094 -0.35665,0.01085 v 0.619167 0.619543 l 0.35665,0.01094 0.35702,0.0105 0.0195,1.609591 c 0.0168,1.390354 0.0284,1.635464 0.0829,1.798254 0.14845,0.44405 0.45728,0.71404 0.97657,0.85354 l 0.002,-0.003 c 0.35044,0.0942 1.05558,0.0833 1.43598,-0.0218 L 44.9817,10.2604 V 9.63598 9.01119 l -0.32364,0.0154 c -0.25636,0.0123 -0.35231,0.002 -0.45903,-0.0484 -0.25757,-0.1224 -0.25989,-0.1335 -0.25989,-1.590471 v -1.29871 l 0.52128,-0.0097 0.52128,-0.0097 V 5.449705 4.829794 l -0.52128,-0.0097 -0.52128,-0.01006 -0.0101,-0.612782 -0.0105,-0.612416 H 43.07855 Z M 22.21785,4.752319 c -0.48967,0 -0.73937,0.04827 -1.07257,0.206642 -0.82398,0.391737 -1.210072,1.459977 -1.110072,3.071805 0.0609,0.981114 0.340412,1.621654 0.865182,1.982004 0.29607,0.20329 0.56743,0.30856 0.95968,0.37277 0.44977,0.0736 1.31386,0.04 1.9115,-0.0743 l 0.21039,-0.0401 V 9.63548 c 0,-0.34949 -0.0123,-0.63532 -0.0273,-0.63529 -0.0151,1.4e-4 -0.16764,0.025 -0.33864,0.0552 C 22.89039,9.18321 22.2509,9.07279 22.04541,8.78425 21.94791,8.647353 21.87064,8.429743 21.85453,8.246463 l -0.0128,-0.142497 1.1517,-0.018 1.15208,-0.0184 0.0281,-0.18301 c 0.0155,-0.1006 0.0294,-0.446127 0.0314,-0.768057 0.005,-0.686502 -0.0549,-1.036968 -0.24077,-1.433706 C 23.66137,5.036426 23.12825,4.752358 22.21776,4.752358 Z m 9.76488,0.0017 c -0.51254,0.01898 -0.93033,0.123803 -1.25184,0.313899 -0.2827,0.167121 -0.46407,0.368788 -0.6218,0.691915 -0.22913,0.469554 -0.31194,0.955989 -0.30976,1.831616 0.002,1.127461 0.17454,1.777091 0.59179,2.233631 0.2751,0.30101 0.5511,0.44453 1.05344,0.54717 0.31306,0.0637 1.04542,0.0654 1.38985,0.003 0.90791,-0.16473 1.39174,-0.66416 1.59609,-1.64862 0.0293,-0.140837 0.0625,-0.552507 0.0743,-0.914664 0.0667,-2.060378 -0.51096,-2.950757 -1.97787,-3.048184 -0.1918,-0.01277 -0.37332,-0.016 -0.54415,-0.0097 z m 4.88768,3.76e-4 c -1.27294,0.03673 -1.80983,0.466258 -1.86838,1.437841 -0.0207,0.344308 0.0263,0.667356 0.13501,0.920683 0.11958,0.27894 0.42821,0.562527 1.07557,0.988927 0.47361,0.311937 0.62006,0.427387 0.6668,0.525787 0.11292,0.237977 -0.0447,0.398117 -0.42752,0.433537 -0.21106,0.0195 -0.91203,-0.027 -1.24134,-0.0821 l -0.12938,-0.0218 -0.063,0.59817 c -0.0346,0.32888 -0.063,0.61772 -0.0626,0.64203 7.2e-4,0.0563 0.21415,0.11381 0.65742,0.17702 0.47854,0.0684 1.5855,0.0463 1.8826,-0.0375 0.34197,-0.0965 0.53724,-0.2031 0.73581,-0.40166 C 38.54256,9.62421 38.6551,9.2962 38.65292,8.71013 38.65092,8.284783 38.58652,8.029236 38.41554,7.771826 38.25741,7.533669 38.06845,7.381789 37.32835,6.896512 36.74732,6.515495 36.68357,6.449176 36.72756,6.273607 c 0.0414,-0.164848 0.20834,-0.213141 0.71592,-0.205515 0.25148,0.0035 0.55622,0.02091 0.67691,0.03866 0.12078,0.01758 0.22104,0.02965 0.2254,0.02738 0.004,-0.0026 0.0325,-0.243428 0.0645,-0.535157 0.032,-0.291746 0.0651,-0.573602 0.0743,-0.626295 0.0159,-0.09356 0.009,-0.0971 -0.26552,-0.14175 C 38.06416,4.80574 37.72346,4.77496 37.4619,4.76227 37.24928,4.75186 37.05233,4.74916 36.87049,4.75447 Z m -9.28522,3.76e-4 c -0.42507,0.0026 -0.72411,0.106714 -1.03545,0.358896 -0.0867,0.07014 -0.16222,0.122002 -0.16875,0.114385 -0.006,-0.007 -0.0397,-0.09994 -0.0743,-0.205515 l -0.0626,-0.192011 h -0.72866 -0.72868 v 3.475007 h -7.3e-4 c 0,2.756557 0.009,3.474577 0.0458,3.473847 0.0251,-7.2e-4 0.40793,-0.0552 0.85056,-0.12076 l 0.8048,-0.11925 0.0101,-0.63304 0.0105,-0.63267 0.0998,0.0251 C 28.47126,10.77435 29.35997,9.89881 29.35951,7.587339 29.35929,6.384683 29.15723,5.625829 28.71785,5.175191 28.41158,4.861047 28.11536,4.751218 27.58528,4.75441 Z m 11.68762,0.07574 v 2.762048 2.761661 h 0.85993 0.85954 V 7.592569 4.830526 h -0.85954 z m -22.863322,0.10088 0.32213,0.01539 c 0.41066,0.01968 0.56302,0.102744 0.68592,0.37428 0.13589,0.300335 0.1732,0.696505 0.15339,1.640721 -0.0148,0.706424 -0.0307,0.897884 -0.0938,1.131444 -0.0956,0.354747 -0.22598,0.553947 -0.4249,0.650284 -0.10775,0.0522 -0.22705,0.0743 -0.39828,0.0743 h -0.2445 V 6.874812 Z m 5.871742,1.069946 c 0.22547,0 0.34689,0.282468 0.34689,0.806675 l 3.8e-4,0.25426 h -0.40765 -0.40728 l 0.0237,-0.23289 c 0.0534,-0.521168 0.21788,-0.828045 0.44403,-0.828045 z m 9.93138,0.07722 c 0.057,0.01041 0.11476,0.03271 0.17176,0.06752 0.27621,0.168389 0.35409,0.477125 0.35627,1.409712 0.002,0.727394 -0.0356,1.012704 -0.16689,1.270951 -0.0381,0.0751 -0.10606,0.16036 -0.15113,0.18938 -0.14146,0.0912 -0.32533,0.10366 -0.4654,0.0318 -0.29715,-0.15227 -0.38478,-0.484087 -0.38478,-1.455451 0,-0.742057 0.0494,-1.072581 0.19314,-1.294197 0.11289,-0.174109 0.27616,-0.250887 0.44703,-0.21977 z m -5.27283,0.0017 c 0.23895,-0.03069 0.42921,0.06174 0.51865,0.264015 0.10457,0.2363 0.15708,0.776027 0.13314,1.376714 -0.0354,0.892397 -0.1276,1.194364 -0.40204,1.318954 -0.14429,0.0655 -0.34537,0.0811 -0.58316,0.045 L 26.50586,9.06984 V 7.650006 6.230175 l 0.18077,-0.07766 c 0.0885,-0.03805 0.17349,-0.0621 0.25315,-0.07233 z" />
    <circle
       style="fill:#ffffff;stroke-width:0.237469"
       id="path50"
       cx="6.4559655"
       cy="1.5389446"
       r="0.19586554" />
    <ellipse
       style="fill:#000000;stroke-width:0.272267"
       id="ellipse50"
       cx="6.6387711"
       cy="-0.27941978"
       rx="0.25710461"
       ry="0.1961471"
       transform="rotate(17.342849)" />
  </g>
</svg>
